<svg width="166.409027" height="52.141479" viewBox="0 0 166.409 52.1415" fill="none" xmlns="http://www.w3.org/2000/svg" xmlns:xlink="http://www.w3.org/1999/xlink">
	<desc>
			Created with Pixso.
	</desc>
	<defs>
		<clipPath id="clip2_524">
			<rect id="Airbnb Logo" rx="-0.475454" width="165.458115" height="51.190586" transform="translate(0.475454 0.475454)" fill="white" fill-opacity="0"/>
		</clipPath>
	</defs>
	<rect id="Airbnb Logo" rx="-0.475454" width="165.458115" height="51.190586" transform="translate(0.475454 0.475454)" fill="#FFFFFF" fill-opacity="0"/>
	<g clip-path="url(#clip2_524)">
		<path id="Vector" d="M87.7 13.1C87.7 14.97 86.19 16.49 84.32 16.49C82.45 16.49 80.94 14.97 80.94 13.1C80.94 11.22 82.39 9.7 84.32 9.7C86.24 9.76 87.7 11.27 87.7 13.1ZM73.76 19.93C73.76 20.25 73.76 20.77 73.76 20.77C73.76 20.77 72.15 18.68 68.72 18.68C63.05 18.68 58.64 23.01 58.64 29.01C58.64 34.96 63 39.35 68.72 39.35C72.2 39.35 73.76 37.21 73.76 37.21L73.76 38.1C73.76 38.51 74.08 38.83 74.49 38.83L78.7 38.83L78.7 19.2C78.7 19.2 74.86 19.2 74.49 19.2C74.08 19.2 73.76 19.57 73.76 19.93ZM73.76 32.51C72.98 33.66 71.42 34.65 69.55 34.65C66.23 34.65 63.68 32.56 63.68 29.01C63.68 25.47 66.23 23.38 69.55 23.38C71.37 23.38 73.04 24.42 73.76 25.52L73.76 32.51ZM81.82 19.2L86.81 19.2L86.81 38.83L81.82 38.83L81.82 19.2ZM156.37 18.68C152.94 18.68 151.33 20.77 151.33 20.77L151.33 9.76L146.34 9.76L146.34 38.83C146.34 38.83 150.18 38.83 150.55 38.83C150.96 38.83 151.28 38.46 151.28 38.1L151.28 37.21C151.28 37.21 152.89 39.35 156.32 39.35C161.99 39.35 166.4 34.96 166.4 29.01C166.4 23.06 161.99 18.68 156.37 18.68ZM155.54 34.6C153.62 34.6 152.11 33.61 151.33 32.46L151.33 25.47C152.11 24.42 153.77 23.33 155.54 23.33C158.87 23.33 161.41 25.41 161.41 28.96C161.41 32.51 158.87 34.6 155.54 34.6ZM143.74 27.19L143.74 38.88L138.75 38.88L138.75 27.76C138.75 24.53 137.71 23.22 134.9 23.22C133.39 23.22 131.83 24 130.85 25.15L130.85 38.83L125.86 38.83L125.86 19.2L129.81 19.2C130.22 19.2 130.53 19.57 130.53 19.93L130.53 20.77C131.99 19.25 133.91 18.68 135.84 18.68C138.02 18.68 139.84 19.31 141.3 20.56C143.06 22.02 143.74 23.9 143.74 27.19ZM113.74 18.68C110.31 18.68 108.7 20.77 108.7 20.77L108.7 9.76L103.71 9.76L103.71 38.83C103.71 38.83 107.56 38.83 107.92 38.83C108.34 38.83 108.65 38.46 108.65 38.1L108.65 37.21C108.65 37.21 110.26 39.35 113.69 39.35C119.36 39.35 123.78 34.96 123.78 29.01C123.83 23.06 119.41 18.68 113.74 18.68ZM112.91 34.6C110.99 34.6 109.48 33.61 108.7 32.46L108.7 25.47C109.48 24.42 111.14 23.33 112.91 23.33C116.24 23.33 118.78 25.41 118.78 28.96C118.78 32.51 116.24 34.6 112.91 34.6ZM99.39 18.68C100.9 18.68 101.68 18.94 101.68 18.94L101.68 23.59C101.68 23.59 97.52 22.18 94.92 25.15L94.92 38.88L89.93 38.88L89.93 19.2C89.93 19.2 93.78 19.2 94.14 19.2C94.56 19.2 94.87 19.57 94.87 19.93L94.87 20.77C95.81 19.67 97.83 18.68 99.39 18.68ZM47.56 37.05C47.3 36.43 47.04 35.75 46.78 35.17C46.37 34.23 45.95 33.35 45.59 32.51L45.54 32.46C41.95 24.63 38.1 16.7 34.05 8.87L33.89 8.55C33.47 7.77 33.06 6.94 32.64 6.1C32.12 5.16 31.6 4.17 30.77 3.23C29.11 1.14 26.72 0 24.17 0C21.57 0 19.23 1.14 17.51 3.13C16.73 4.07 16.16 5.06 15.64 6C15.23 6.83 14.81 7.67 14.4 8.45L14.24 8.76C10.24 16.59 6.34 24.53 2.75 32.36L2.7 32.46C2.33 33.29 1.92 34.18 1.5 35.12C1.24 35.7 0.98 36.32 0.72 37C0.05 38.93 -0.16 40.76 0.1 42.64C0.67 46.55 3.27 49.84 6.86 51.3C8.21 51.88 9.61 52.14 11.07 52.14C11.48 52.14 12 52.08 12.42 52.03C14.14 51.82 15.9 51.25 17.62 50.26C19.75 49.06 21.78 47.33 24.06 44.83C26.35 47.33 28.43 49.06 30.51 50.26C32.23 51.25 33.99 51.82 35.71 52.03C36.13 52.08 36.65 52.14 37.06 52.14C38.52 52.14 39.97 51.88 41.27 51.3C44.91 49.84 47.46 46.5 48.03 42.64C48.45 40.81 48.24 38.98 47.56 37.05ZM24.12 39.77C21.31 36.22 19.49 32.88 18.87 30.06C18.61 28.86 18.55 27.81 18.71 26.87C18.81 26.04 19.13 25.31 19.54 24.68C20.53 23.27 22.19 22.39 24.12 22.39C26.04 22.39 27.76 23.22 28.69 24.68C29.11 25.31 29.42 26.04 29.52 26.87C29.68 27.81 29.63 28.91 29.37 30.06C28.74 32.82 26.92 36.17 24.12 39.77ZM44.86 42.22C44.5 44.93 42.68 47.28 40.13 48.33C38.88 48.85 37.53 49 36.18 48.85C34.88 48.69 33.58 48.27 32.23 47.49C30.36 46.45 28.48 44.83 26.3 42.43C29.73 38.2 31.81 34.34 32.59 30.89C32.95 29.28 33.01 27.81 32.85 26.46C32.64 25.15 32.17 23.95 31.45 22.91C29.84 20.56 27.13 19.2 24.12 19.2C21.1 19.2 18.4 20.61 16.79 22.91C16.06 23.95 15.59 25.15 15.38 26.46C15.18 27.81 15.23 29.33 15.64 30.89C16.42 34.34 18.55 38.25 21.93 42.48C19.8 44.88 17.88 46.5 16.01 47.54C14.66 48.33 13.36 48.74 12.06 48.9C10.65 49.06 9.3 48.85 8.1 48.38C5.56 47.33 3.74 44.99 3.37 42.27C3.22 40.97 3.32 39.66 3.84 38.2C4 37.68 4.26 37.16 4.52 36.53C4.88 35.7 5.3 34.81 5.71 33.92L5.77 33.82C9.35 26.04 13.2 18.11 17.2 10.38L17.36 10.07C17.77 9.29 18.19 8.45 18.61 7.67C19.02 6.83 19.49 6.05 20.06 5.37C21.15 4.12 22.61 3.44 24.22 3.44C25.83 3.44 27.29 4.12 28.38 5.37C28.95 6.05 29.42 6.83 29.84 7.67C30.25 8.45 30.67 9.29 31.08 10.07L31.24 10.38C35.19 18.16 39.04 26.09 42.62 33.87L42.62 33.92C43.04 34.76 43.4 35.7 43.82 36.53C44.08 37.16 44.34 37.68 44.5 38.2C44.91 39.56 45.07 40.86 44.86 42.22Z" fill="#FF5A5F" fill-opacity="1.000000" fill-rule="nonzero"/>
	</g>
</svg>
