<svg width="141.546509" height="42.605469" viewBox="0 0 141.547 42.6055" fill="none" xmlns="http://www.w3.org/2000/svg" xmlns:xlink="http://www.w3.org/1999/xlink">
	<desc>
			Created with Pixso.
	</desc>
	<defs>
		<clipPath id="clip2_534">
			<rect id="Amazon Logo" rx="-0.710092" width="140.126343" height="41.185314" transform="translate(0.710092 0.710092)" fill="white" fill-opacity="0"/>
		</clipPath>
	</defs>
	<rect id="Amazon Logo" rx="-0.710092" width="140.126343" height="41.185314" transform="translate(0.710092 0.710092)" fill="#FFFFFF" fill-opacity="0"/>
	<g clip-path="url(#clip2_534)">
		<path id="path8" d="M87.81 33.31C79.58 39.37 67.66 42.6 57.39 42.6C43 42.6 30.04 37.28 20.24 28.44C19.47 27.74 20.16 26.8 21.09 27.34C31.66 33.49 44.75 37.18 58.26 37.18C67.37 37.18 77.39 35.3 86.61 31.39C88 30.8 89.17 32.3 87.81 33.31Z" fill="#FF9900" fill-opacity="1.000000" fill-rule="evenodd"/>
		<path id="path10" d="M91.23 29.41C90.18 28.06 84.28 28.77 81.63 29.09C80.82 29.18 80.7 28.48 81.42 27.98C86.13 24.67 93.84 25.63 94.74 26.74C95.64 27.85 94.51 35.57 90.09 39.26C89.41 39.83 88.76 39.52 89.06 38.77C90.06 36.3 92.28 30.75 91.23 29.41Z" fill="#FF9900" fill-opacity="1.000000" fill-rule="evenodd"/>
		<path id="path12" d="M81.81 4.65L81.81 1.44C81.81 0.95 82.18 0.62 82.63 0.62L97.03 0.62C97.49 0.62 97.86 0.95 97.86 1.44L97.86 4.19C97.85 4.65 97.46 5.25 96.77 6.2L89.31 16.85C92.08 16.78 95.01 17.19 97.52 18.61C98.09 18.93 98.25 19.39 98.29 19.85L98.29 23.28C98.29 23.75 97.77 24.3 97.23 24.01C92.8 21.69 86.91 21.44 82.02 24.04C81.52 24.31 80.99 23.77 80.99 23.3L80.99 20.05C80.99 19.52 81 18.63 81.52 17.84L90.17 5.45L82.64 5.45C82.18 5.45 81.81 5.13 81.81 4.65Z" fill="#000000" fill-opacity="1.000000" fill-rule="evenodd"/>
		<path id="path14" d="M29.29 24.69L24.91 24.69C24.49 24.66 24.15 24.35 24.12 23.95L24.12 1.49C24.12 1.04 24.5 0.68 24.97 0.68L29.05 0.68C29.48 0.7 29.82 1.03 29.85 1.44L29.85 4.37L29.93 4.37C30.99 1.53 33 0.21 35.69 0.21C38.44 0.21 40.15 1.53 41.38 4.37C42.44 1.53 44.85 0.21 47.43 0.21C49.27 0.21 51.28 0.97 52.5 2.67C53.89 4.56 53.61 7.3 53.61 9.71L53.6 23.88C53.6 24.33 53.22 24.69 52.76 24.69L48.38 24.69C47.94 24.66 47.59 24.31 47.59 23.88L47.59 11.98C47.59 11.03 47.68 8.67 47.47 7.77C47.14 6.26 46.16 5.84 44.89 5.84C43.83 5.84 42.72 6.54 42.27 7.68C41.82 8.81 41.87 10.7 41.87 11.98L41.87 23.88C41.87 24.33 41.49 24.69 41.02 24.69L36.65 24.69C36.21 24.66 35.86 24.31 35.86 23.88L35.85 11.98C35.85 9.47 36.27 5.79 33.16 5.79C30.01 5.79 30.13 9.38 30.13 11.98L30.13 23.88C30.13 24.33 29.75 24.69 29.29 24.69Z" fill="#000000" fill-opacity="1.000000" fill-rule="evenodd"/>
		<path id="path16" d="M110.25 0.21C116.75 0.21 120.27 5.79 120.27 12.88C120.27 19.73 116.38 25.16 110.25 25.16C103.87 25.16 100.4 19.58 100.4 12.64C100.4 5.64 103.91 0.21 110.25 0.21ZM110.29 4.8C107.06 4.8 106.86 9.19 106.86 11.93C106.86 14.67 106.82 20.53 110.25 20.53C113.65 20.53 113.81 15.81 113.81 12.93C113.81 11.03 113.73 8.76 113.16 6.97C112.66 5.4 111.68 4.8 110.29 4.8Z" fill="#000000" fill-opacity="1.000000" fill-rule="evenodd"/>
		<path id="path18" d="M128.7 24.69L124.34 24.69C123.9 24.66 123.55 24.31 123.55 23.88L123.54 1.42C123.58 1 123.94 0.68 124.39 0.68L128.45 0.68C128.83 0.7 129.14 0.96 129.23 1.31L129.23 4.75L129.31 4.75C130.54 1.68 132.26 0.21 135.28 0.21C137.25 0.21 139.16 0.92 140.39 2.86C141.54 4.65 141.54 7.68 141.54 9.85L141.54 23.98C141.49 24.38 141.13 24.69 140.7 24.69L136.3 24.69C135.9 24.66 135.57 24.37 135.53 23.98L135.53 11.79C135.53 9.33 135.81 5.74 132.79 5.74C131.72 5.74 130.74 6.45 130.25 7.53C129.64 8.91 129.56 10.27 129.56 11.79L129.56 23.88C129.55 24.33 129.17 24.69 128.7 24.69Z" fill="#000000" fill-opacity="1.000000" fill-rule="evenodd"/>
		<path id="path28" d="M70.33 13.97C70.33 15.67 70.38 17.09 69.51 18.61C68.82 19.84 67.71 20.59 66.48 20.59C64.8 20.59 63.82 19.31 63.82 17.42C63.82 13.69 67.16 13.02 70.33 13.02L70.33 13.97ZM74.75 24.63C74.46 24.89 74.04 24.91 73.72 24.73C72.26 23.53 72 22.97 71.2 21.82C68.8 24.27 67.09 25 63.98 25C60.29 25 57.43 22.73 57.43 18.18C57.43 14.63 59.35 12.21 62.1 11.03C64.47 9.98 67.8 9.8 70.33 9.51L70.33 8.94C70.33 7.9 70.41 6.67 69.8 5.77C69.27 4.97 68.25 4.64 67.34 4.64C65.67 4.64 64.18 5.49 63.82 7.26C63.75 7.66 63.46 8.04 63.06 8.06L58.81 7.61C58.45 7.53 58.05 7.24 58.16 6.69C59.13 1.55 63.79 0 67.96 0C70.09 0 72.87 0.56 74.55 2.17C76.69 4.16 76.48 6.81 76.48 9.7L76.48 16.52C76.48 18.57 77.33 19.47 78.13 20.57C78.41 20.97 78.47 21.44 78.12 21.74C77.22 22.48 75.63 23.87 74.76 24.64L74.75 24.63Z" fill="#000000" fill-opacity="1.000000" fill-rule="evenodd"/>
		<path id="path30" d="M12.9 13.97C12.9 15.67 12.95 17.09 12.08 18.61C11.39 19.84 10.28 20.59 9.05 20.59C7.37 20.59 6.39 19.31 6.39 17.42C6.39 13.69 9.74 13.02 12.9 13.02L12.9 13.97ZM17.32 24.63C17.03 24.89 16.61 24.91 16.29 24.73C14.83 23.53 14.57 22.97 13.77 21.82C11.37 24.27 9.67 25 6.55 25C2.87 25 0 22.73 0 18.18C0 14.63 1.92 12.21 4.67 11.03C7.04 9.98 10.36 9.8 12.9 9.51L12.9 8.94C12.9 7.9 12.98 6.67 12.37 5.77C11.84 4.97 10.81 4.64 9.91 4.64C8.25 4.64 6.75 5.49 6.39 7.26C6.32 7.66 6.03 8.04 5.63 8.06L1.38 7.61C1.02 7.53 0.63 7.24 0.73 6.69C1.71 1.55 6.36 0 10.52 0C12.66 0 15.44 0.56 17.12 2.17C19.26 4.16 19.05 6.81 19.05 9.7L19.05 16.52C19.05 18.57 19.9 19.47 20.7 20.57C20.99 20.97 21.05 21.44 20.69 21.74C19.8 22.48 18.21 23.87 17.33 24.64L17.32 24.63Z" fill="#000000" fill-opacity="1.000000" fill-rule="evenodd"/>
	</g>
</svg>
