<svg width="149.989746" height="49.288574" viewBox="0 0 149.99 49.2886" fill="none" xmlns="http://www.w3.org/2000/svg" xmlns:xlink="http://www.w3.org/1999/xlink">
	<desc>
			Created with Pixso.
	</desc>
	<defs/>
	<path id="Vector" d="M145.57 30.1L149.75 32.88C148.39 34.87 145.15 38.3 139.55 38.3C132.59 38.3 127.41 32.91 127.41 26.07C127.41 18.78 132.65 13.84 138.96 13.84C145.32 13.84 148.43 18.89 149.44 21.62L149.99 23.01L133.62 29.78C134.86 32.24 136.8 33.48 139.55 33.48C142.3 33.48 144.2 32.13 145.57 30.1ZM132.74 25.68L143.67 21.14C143.06 19.62 141.27 18.54 139.13 18.54C136.4 18.54 132.61 20.96 132.74 25.68Z" fill="#FF302F" fill-opacity="1.000000" fill-rule="nonzero"/>
	<path id="Vector" d="M119.52 1.37L124.79 1.37L124.79 37.18L119.52 37.18L119.52 1.37Z" fill="#20B15A" fill-opacity="1.000000" fill-rule="nonzero"/>
	<path id="Vector" d="M111.21 14.79L116.3 14.79L116.3 36.54C116.3 45.57 110.97 49.28 104.67 49.28C98.74 49.28 95.17 45.29 93.83 42.05L98.5 40.11C99.34 42.11 101.37 44.47 104.67 44.47C108.72 44.47 111.21 41.96 111.21 37.27L111.21 35.52L111.02 35.52C109.81 36.98 107.51 38.3 104.58 38.3C98.46 38.3 92.86 32.97 92.86 26.1C92.86 19.2 98.46 13.82 104.58 13.82C107.49 13.82 109.81 15.12 111.02 16.55L111.21 16.55L111.21 14.79ZM111.57 26.1C111.57 21.78 108.7 18.63 105.04 18.63C101.34 18.63 98.22 21.78 98.22 26.1C98.22 30.37 101.34 33.46 105.04 33.46C108.7 33.48 111.57 30.37 111.57 26.1Z" fill="#3686F7" fill-opacity="1.000000" fill-rule="nonzero"/>
	<path id="Vector" d="M63.91 26.01C63.91 33.06 58.42 38.24 51.68 38.24C44.94 38.24 39.45 33.04 39.45 26.01C39.45 18.93 44.94 13.76 51.68 13.76C58.42 13.76 63.91 18.93 63.91 26.01ZM58.57 26.01C58.57 21.62 55.38 18.6 51.68 18.6C47.98 18.6 44.8 21.62 44.8 26.01C44.8 30.37 47.98 33.43 51.68 33.43C55.38 33.43 58.57 30.37 58.57 26.01Z" fill="#FF302F" fill-opacity="1.000000" fill-rule="nonzero"/>
	<path id="Vector" d="M90.63 26.07C90.63 33.12 85.13 38.3 78.4 38.3C71.66 38.3 66.16 33.12 66.16 26.07C66.16 18.98 71.66 13.84 78.4 13.84C85.13 13.84 90.63 18.96 90.63 26.07ZM85.26 26.07C85.26 21.67 82.08 18.65 78.38 18.65C74.68 18.65 71.49 21.67 71.49 26.07C71.49 30.43 74.68 33.48 78.38 33.48C82.09 33.48 85.26 30.41 85.26 26.07Z" fill="#FFBA40" fill-opacity="1.000000" fill-rule="nonzero"/>
	<path id="Vector" d="M19.35 32.93C11.68 32.93 5.67 26.74 5.67 19.07C5.67 11.4 11.68 5.21 19.35 5.21C23.49 5.21 26.51 6.84 28.74 8.93L32.42 5.25C29.31 2.27 25.15 0 19.35 0C8.84 0 0 8.56 0 19.07C0 29.58 8.84 38.15 19.35 38.15C25.02 38.15 29.31 36.28 32.66 32.81C36.1 29.36 37.16 24.53 37.16 20.61C37.16 19.38 37.02 18.12 36.85 17.19L19.35 17.19L19.35 22.28L31.82 22.28C31.45 25.46 30.44 27.64 28.96 29.13C27.17 30.94 24.33 32.93 19.35 32.93Z" fill="#3686F7" fill-opacity="1.000000" fill-rule="nonzero"/>
</svg>
