<svg width="166.409027" height="27.734863" viewBox="0 0 166.409 27.7349" fill="none" xmlns="http://www.w3.org/2000/svg" xmlns:xlink="http://www.w3.org/1999/xlink">
	<desc>
			Created with Pixso.
	</desc>
	<defs>
		<clipPath id="clip2_520">
			<rect id="Uber Eats Logo" rx="-0.475454" width="165.458115" height="26.783930" transform="translate(0.475454 0.475454)" fill="white" fill-opacity="0"/>
		</clipPath>
	</defs>
	<rect id="Uber Eats Logo" rx="-0.475454" width="165.458115" height="26.783930" transform="translate(0.475454 0.475454)" fill="#FFFFFF" fill-opacity="0"/>
	<g clip-path="url(#clip2_520)">
		<path id="Vector" d="M77.14 11.16C74.67 11.16 72.92 13.11 72.92 16.09L72.92 27.05L69.16 27.05L69.16 7.77L72.88 7.77L72.88 10.12C73.34 9.34 73.99 8.7 74.78 8.26C75.57 7.82 76.46 7.6 77.36 7.63L78.71 7.63L78.71 11.16L77.14 11.16ZM66.55 17.41C66.55 11.66 62.5 7.36 57 7.36C55.7 7.37 54.42 7.63 53.23 8.14C52.03 8.65 50.95 9.4 50.04 10.33C49.13 11.27 48.41 12.37 47.93 13.59C47.45 14.8 47.21 16.1 47.23 17.41C47.23 23.16 51.62 27.5 57.36 27.5C58.96 27.53 60.55 27.17 61.98 26.46C63.42 25.74 64.66 24.69 65.61 23.38L62.88 21.36C62.25 22.25 61.42 22.96 60.46 23.45C59.5 23.94 58.44 24.19 57.36 24.17C55.83 24.16 54.35 23.6 53.19 22.59C52.03 21.58 51.27 20.18 51.05 18.65L66.56 18.65L66.55 17.41ZM51.13 15.64C51.8 12.7 54.13 10.71 56.96 10.71C59.79 10.71 62.11 12.7 62.74 15.64L51.13 15.64ZM35.3 7.36C34.04 7.36 32.79 7.61 31.63 8.1C30.47 8.59 29.42 9.3 28.53 10.21L28.53 0.56L24.77 0.56L24.77 27.05L28.49 27.05L28.49 24.61C30.29 26.44 32.74 27.49 35.31 27.5C36.64 27.53 37.96 27.29 39.2 26.8C40.43 26.3 41.56 25.57 42.51 24.63C43.46 23.69 44.22 22.57 44.73 21.33C45.25 20.1 45.51 18.77 45.51 17.43C45.51 16.09 45.25 14.76 44.73 13.52C44.22 12.29 43.46 11.17 42.51 10.23C41.56 9.29 40.43 8.55 39.2 8.06C37.96 7.57 36.64 7.33 35.31 7.36L35.3 7.36ZM35.03 24.11C33.71 24.12 32.43 23.73 31.34 23C30.24 22.27 29.39 21.23 28.88 20C28.38 18.78 28.24 17.44 28.5 16.14C28.75 14.84 29.38 13.65 30.31 12.71C31.23 11.78 32.42 11.14 33.7 10.88C34.99 10.62 36.33 10.76 37.54 11.26C38.75 11.77 39.79 12.63 40.51 13.73C41.24 14.84 41.62 16.13 41.62 17.45C41.62 18.33 41.45 19.19 41.12 20C40.79 20.8 40.3 21.54 39.69 22.15C39.08 22.77 38.35 23.26 37.55 23.59C36.75 23.92 35.89 24.09 35.03 24.09L35.03 24.11ZM10.9 23.93C14.53 23.93 17.36 21.12 17.36 16.91L17.36 0.56L21.26 0.56L21.26 27.05L17.4 27.05L17.4 24.55C16.5 25.49 15.42 26.23 14.23 26.74C13.03 27.24 11.75 27.5 10.45 27.49C4.85 27.49 0.53 23.37 0.53 17.12L0.53 0.56L4.5 0.56L4.5 16.93C4.5 21.16 7.21 23.93 10.9 23.93Z" fill="#262626" fill-opacity="1.000000" fill-rule="nonzero"/>
		<path id="Vector" d="M88.08 0.56L106.51 0.56L106.51 5.11L93.06 5.11L93.06 11.57L106.14 11.57L106.14 15.96L93.06 15.96L93.06 22.52L106.51 22.52L106.51 27.07L88.08 27.07L88.08 0.56ZM157.41 27.55C163.06 27.55 166.25 24.82 166.25 21.07C166.25 18.4 164.36 16.41 160.42 15.55L156.24 14.69C153.82 14.24 153.06 13.78 153.06 12.87C153.06 11.69 154.23 10.97 156.38 10.97C158.71 10.97 160.44 11.6 160.89 13.78L165.78 13.78C165.51 9.68 162.59 6.98 156.68 6.98C151.56 6.98 147.97 9.11 147.97 13.24C147.97 16.09 149.95 17.94 154.21 18.85L158.87 19.93C160.71 20.3 161.2 20.8 161.2 21.56C161.2 22.79 159.82 23.56 157.57 23.56C154.75 23.56 153.13 22.92 152.5 20.75L147.59 20.75C148.31 24.83 151.31 27.55 157.41 27.55ZM146.17 27.05L140.88 27.05C137.56 27.05 135.72 24.97 135.72 22.34L135.72 11.93L132 11.93L132 7.49L135.74 7.49L135.74 1.92L140.65 1.92L140.65 7.49L146.17 7.49L146.17 11.93L140.65 11.93L140.65 21.07C140.65 22.11 141.37 22.61 142.49 22.61L146.17 22.61L146.17 27.05ZM124.97 7.5L124.97 9.27C123.24 7.79 121.05 6.98 118.78 6.99C117.42 6.96 116.08 7.21 114.81 7.71C113.55 8.22 112.4 8.97 111.43 9.93C110.46 10.88 109.69 12.03 109.17 13.29C108.64 14.55 108.37 15.9 108.37 17.27C108.37 18.64 108.64 19.99 109.17 21.25C109.69 22.52 110.46 23.66 111.43 24.62C112.4 25.57 113.55 26.33 114.81 26.83C116.08 27.33 117.42 27.58 118.78 27.55C121.05 27.56 123.24 26.75 124.97 25.27L124.97 27.04L129.88 27.04L129.88 7.49L124.97 7.5ZM119.19 23.26C118.01 23.27 116.86 22.93 115.87 22.28C114.89 21.63 114.12 20.7 113.66 19.61C113.2 18.52 113.07 17.32 113.3 16.15C113.52 14.99 114.08 13.92 114.9 13.07C115.73 12.23 116.79 11.65 117.94 11.42C119.09 11.18 120.29 11.3 121.38 11.75C122.46 12.2 123.39 12.97 124.05 13.95C124.7 14.94 125.05 16.1 125.05 17.28C125.06 18.06 124.91 18.84 124.62 19.56C124.33 20.29 123.9 20.94 123.35 21.5C122.8 22.05 122.15 22.49 121.44 22.79C120.72 23.09 119.95 23.25 119.18 23.25L119.19 23.26Z" fill="#5FB709" fill-opacity="1.000000" fill-rule="nonzero"/>
	</g>
</svg>
