<svg width="74.000000" height="74.000000" viewBox="0 0 74 74" fill="none" xmlns="http://www.w3.org/2000/svg" xmlns:xlink="http://www.w3.org/1999/xlink">
	<desc>
			Created with Pixso.
	</desc>
	<defs>
		<clipPath id="clip2_555">
			<rect id="box-search 1" rx="-0.765625" width="72.468750" height="72.468750" transform="translate(0.765625 0.765625)" fill="white" fill-opacity="0"/>
		</clipPath>
	</defs>
	<rect id="box-search 1" rx="-0.765625" width="72.468750" height="72.468750" transform="translate(0.765625 0.765625)" fill="#FFFFFF" fill-opacity="0"/>
	<g clip-path="url(#clip2_555)">
		<path id="Vector" d="M36.99 41C36.59 41 36.19 40.91 35.82 40.69L8.6 24.94C7.49 24.29 7.12 22.87 7.76 21.76C8.41 20.65 9.8 20.28 10.94 20.93L36.99 36.01L62.89 21.02C64 20.38 65.42 20.78 66.07 21.86C66.72 22.97 66.32 24.38 65.24 25.03L38.2 40.69C37.79 40.88 37.39 41 36.99 41Z" fill="#2639ED" fill-opacity="1.000000" fill-rule="nonzero"/>
		<path id="Vector" d="M37 68.94C35.73 68.94 34.68 67.89 34.68 66.63L34.68 38.66C34.68 37.4 35.73 36.35 37 36.35C38.26 36.35 39.31 37.4 39.31 38.66L39.31 66.63C39.31 67.89 38.26 68.94 37 68.94Z" fill="#2639ED" fill-opacity="1.000000" fill-rule="nonzero"/>
		<path id="Vector" d="M36.99 70.14C34.19 70.14 31.5 69.49 29.47 68.35L13 59.23C8.53 56.76 5.02 50.81 5.02 45.69L5.02 28.24C5.02 23.12 8.53 17.2 13 14.7L29.47 5.58C33.66 3.23 40.26 3.23 44.48 5.58L60.95 14.7C65.42 17.17 68.93 23.12 68.93 28.24L68.93 39.52C68.93 40.79 67.89 41.84 66.62 41.84C65.36 41.84 64.31 40.79 64.31 39.52L64.31 28.24C64.31 24.85 61.69 20.41 58.73 18.77L42.26 9.65C39.46 8.07 34.56 8.07 31.75 9.65L15.28 18.77C12.29 20.44 9.7 24.85 9.7 28.24L9.7 45.69C9.7 49.08 12.32 53.52 15.28 55.16L31.75 64.28C34.46 65.79 39.58 65.79 42.26 64.28C43.37 63.67 44.79 64.07 45.41 65.18C46.03 66.29 45.62 67.71 44.51 68.32C42.48 69.49 39.8 70.14 36.99 70.14Z" fill="#2639ED" fill-opacity="1.000000" fill-rule="nonzero"/>
		<path id="Vector" d="M59.2 68.29C52.47 68.29 47.02 62.83 47.02 56.11C47.02 49.39 52.47 43.93 59.2 43.93C65.92 43.93 71.37 49.39 71.37 56.11C71.37 62.83 65.92 68.29 59.2 68.29ZM59.2 48.56C55.03 48.56 51.64 51.95 51.64 56.11C51.64 60.27 55.03 63.67 59.2 63.67C63.36 63.67 66.75 60.27 66.75 56.11C66.75 51.95 63.36 48.56 59.2 48.56Z" fill="#2639ED" fill-opacity="1.000000" fill-rule="nonzero"/>
		<path id="Vector" d="M70.91 70.14C70.32 70.14 69.74 69.93 69.28 69.46L66.19 66.38C65.3 65.49 65.3 64 66.19 63.11C67.09 62.22 68.57 62.22 69.46 63.11L72.54 66.19C73.44 67.09 73.44 68.57 72.54 69.46C72.08 69.93 71.5 70.14 70.91 70.14Z" fill="#2639ED" fill-opacity="1.000000" fill-rule="nonzero"/>
	</g>
</svg>
