<svg width="74.000000" height="74.000000" viewBox="0 0 74 74" fill="none" xmlns="http://www.w3.org/2000/svg" xmlns:xlink="http://www.w3.org/1999/xlink">
	<desc>
			Created with Pixso.
	</desc>
	<defs>
		<clipPath id="clip2_576">
			<rect id="chart-square 1" rx="-0.500000" width="73.000000" height="73.000000" transform="translate(0.500000 0.500000)" fill="white" fill-opacity="0"/>
		</clipPath>
	</defs>
	<rect id="chart-square 1" rx="-0.500000" width="73.000000" height="73.000000" transform="translate(0.500000 0.500000)" fill="#FFFFFF" fill-opacity="0"/>
	<g clip-path="url(#clip2_576)">
		<path id="Vector" d="M31.17 55.96L19.48 55.96C18.22 55.96 17.17 54.91 17.17 53.64L17.17 37.86C17.17 34.65 19.79 32.03 23 32.03L31.17 32.03C32.43 32.03 33.48 33.08 33.48 34.34L33.48 53.61C33.48 54.91 32.43 55.96 31.17 55.96ZM21.8 51.33L28.86 51.33L28.86 36.69L23 36.69C22.35 36.69 21.8 37.21 21.8 37.89L21.8 51.33Z" fill="#00DA71" fill-opacity="1.000000" fill-rule="nonzero"/>
		<path id="Vector" d="M42.82 55.96L31.14 55.96C29.87 55.96 28.82 54.91 28.82 53.64L28.82 23.86C28.82 20.65 31.44 18.03 34.65 18.03L39.34 18.03C42.54 18.03 45.16 20.65 45.16 23.86L45.16 53.64C45.13 54.91 44.12 55.96 42.82 55.96ZM33.48 51.33L40.54 51.33L40.54 23.86C40.54 23.21 40.02 22.66 39.34 22.66L34.65 22.66C34 22.66 33.45 23.18 33.45 23.86L33.45 51.33L33.48 51.33Z" fill="#00DA71" fill-opacity="1.000000" fill-rule="nonzero"/>
		<path id="Vector" d="M54.51 55.96L42.82 55.96C41.56 55.96 40.51 54.91 40.51 53.64L40.51 39.61C40.51 38.35 41.56 37.3 42.82 37.3L51 37.3C54.2 37.3 56.82 39.92 56.82 43.13L56.82 53.64C56.82 54.91 55.81 55.96 54.51 55.96ZM45.14 51.33L52.2 51.33L52.2 43.13C52.2 42.48 51.67 41.93 51 41.93L45.14 41.93L45.14 51.33Z" fill="#00DA71" fill-opacity="1.000000" fill-rule="nonzero"/>
		<path id="Vector" d="M46.25 70.14L27.75 70.14C11 70.14 3.85 62.99 3.85 46.24L3.85 27.74C3.85 11 11 3.85 27.75 3.85L46.25 3.85C62.99 3.85 70.14 11 70.14 27.74L70.14 46.24C70.14 62.99 62.99 70.14 46.25 70.14ZM27.75 8.47C13.53 8.47 8.47 13.53 8.47 27.74L8.47 46.24C8.47 60.46 13.53 65.52 27.75 65.52L46.25 65.52C60.46 65.52 65.52 60.46 65.52 46.24L65.52 27.74C65.52 13.53 60.46 8.47 46.25 8.47L27.75 8.47Z" fill="#00DA71" fill-opacity="1.000000" fill-rule="nonzero"/>
	</g>
</svg>
