<svg width="74.000000" height="74.000000" viewBox="0 0 74 74" fill="none" xmlns="http://www.w3.org/2000/svg" xmlns:xlink="http://www.w3.org/1999/xlink">
	<desc>
			Created with Pixso.
	</desc>
	<defs>
		<clipPath id="clip2_586">
			<rect id="code-1 1" rx="-0.500000" width="73.000000" height="73.000000" transform="translate(0.500000 0.500000)" fill="white" fill-opacity="0"/>
		</clipPath>
	</defs>
	<rect id="code-1 1" rx="-0.500000" width="73.000000" height="73.000000" transform="translate(0.500000 0.500000)" fill="#FFFFFF" fill-opacity="0"/>
	<g clip-path="url(#clip2_586)">
		<path id="Vector" d="M27.75 54.72C27.41 54.72 27.04 54.63 26.73 54.48C24.36 53.27 22.32 51.49 20.84 49.27C19.61 47.42 19.61 45.04 20.84 43.19C22.32 40.97 24.36 39.18 26.73 38.01C27.87 37.43 29.26 37.92 29.84 39.06C30.43 40.2 29.97 41.59 28.8 42.17C27.13 43.01 25.71 44.27 24.7 45.81C24.51 46.09 24.51 46.46 24.7 46.77C25.71 48.31 27.13 49.57 28.8 50.41C29.94 50.99 30.4 52.38 29.84 53.52C29.41 54.26 28.58 54.72 27.75 54.72Z" fill="#FF007A" fill-opacity="1.000000" fill-rule="nonzero"/>
		<path id="Vector" d="M46.89 54.72C46.03 54.72 45.23 54.26 44.82 53.46C44.24 52.32 44.7 50.93 45.87 50.35C47.54 49.51 48.96 48.25 49.97 46.71C50.16 46.43 50.16 46.06 49.97 45.75C48.96 44.21 47.54 42.95 45.87 42.11C44.73 41.53 44.27 40.14 44.82 39C45.41 37.86 46.8 37.4 47.94 37.95C50.31 39.15 52.35 40.94 53.83 43.16C55.06 45.01 55.06 47.39 53.83 49.24C52.35 51.46 50.31 53.24 47.94 54.42C47.57 54.63 47.23 54.72 46.89 54.72Z" fill="#FF007A" fill-opacity="1.000000" fill-rule="nonzero"/>
		<path id="Vector" d="M46.25 70.14L27.75 70.14C11 70.14 3.85 62.99 3.85 46.25L3.85 27.75C3.85 11 11 3.85 27.75 3.85L46.25 3.85C62.99 3.85 70.14 11 70.14 27.75L70.14 46.25C70.14 62.99 62.99 70.14 46.25 70.14ZM27.75 8.47C13.53 8.47 8.47 13.53 8.47 27.75L8.47 46.25C8.47 60.46 13.53 65.52 27.75 65.52L46.25 65.52C60.46 65.52 65.52 60.46 65.52 46.25L65.52 27.75C65.52 13.53 60.46 8.47 46.25 8.47L27.75 8.47Z" fill="#FF007A" fill-opacity="1.000000" fill-rule="nonzero"/>
		<path id="Vector" d="M6.87 27.01C5.61 27.01 4.56 25.96 4.56 24.69C4.56 23.43 5.58 22.38 6.87 22.38L66.13 22.35C67.4 22.35 68.45 23.4 68.45 24.66C68.45 25.93 67.43 26.97 66.13 26.97L6.87 27.01Z" fill="#FF007A" fill-opacity="1.000000" fill-rule="nonzero"/>
	</g>
</svg>
