<svg width="74.000000" height="74.000000" viewBox="0 0 74 74" fill="none" xmlns="http://www.w3.org/2000/svg" xmlns:xlink="http://www.w3.org/1999/xlink">
	<desc>
			Created with Pixso.
	</desc>
	<defs>
		<clipPath id="clip2_566">
			<rect id="empty-wallet 1" rx="-0.500000" width="73.000000" height="73.000000" transform="translate(0.500000 0.500000)" fill="white" fill-opacity="0"/>
		</clipPath>
	</defs>
	<rect id="empty-wallet 1" rx="-0.500000" width="73.000000" height="73.000000" transform="translate(0.500000 0.500000)" fill="#FFFFFF" fill-opacity="0"/>
	<g clip-path="url(#clip2_566)">
		<path id="Vector" d="M54.69 70.14L19.3 70.14C11.62 70.14 5.39 63.91 5.39 56.24L5.39 35.48C5.39 27.81 11.62 21.58 19.3 21.58L54.69 21.58C62.37 21.58 68.6 27.81 68.6 35.48L68.6 39.92C68.6 41.19 67.55 42.24 66.29 42.24L60.06 42.24C58.98 42.24 57.99 42.64 57.28 43.38L57.25 43.41C56.39 44.24 55.99 45.38 56.08 46.55C56.27 48.59 58.21 50.22 60.43 50.22L66.29 50.22C67.55 50.22 68.6 51.27 68.6 52.54L68.6 56.2C68.6 63.91 62.37 70.14 54.69 70.14ZM19.3 26.2C14.18 26.2 10.02 30.37 10.02 35.48L10.02 56.24C10.02 61.35 14.18 65.52 19.3 65.52L54.69 65.52C59.81 65.52 63.97 61.35 63.97 56.24L63.97 54.88L60.43 54.88C55.77 54.88 51.83 51.43 51.46 46.99C51.21 44.46 52.13 41.96 53.98 40.14C55.59 38.51 57.75 37.61 60.06 37.61L63.97 37.61L63.97 35.48C63.97 30.37 59.81 26.2 54.69 26.2L19.3 26.2Z" fill="#FF9900" fill-opacity="1.000000" fill-rule="nonzero"/>
		<path id="Vector" d="M7.7 40.57C6.44 40.57 5.39 39.52 5.39 38.26L5.39 24.17C5.39 19.57 8.29 15.41 12.57 13.78L37.06 4.53C39.58 3.57 42.39 3.91 44.58 5.45C46.8 6.99 48.09 9.49 48.09 12.17L48.09 23.89C48.09 25.16 47.05 26.2 45.78 26.2C44.52 26.2 43.47 25.16 43.47 23.89L43.47 12.17C43.47 11 42.91 9.92 41.93 9.25C40.94 8.57 39.77 8.41 38.66 8.84L14.18 18.09C11.68 19.05 9.98 21.49 9.98 24.17L9.98 38.26C10.02 39.55 8.97 40.57 7.7 40.57Z" fill="#FF9900" fill-opacity="1.000000" fill-rule="nonzero"/>
		<path id="Vector" d="M60.43 54.88C55.77 54.88 51.83 51.43 51.46 46.99C51.21 44.43 52.14 41.93 53.99 40.11C55.56 38.51 57.72 37.61 60.03 37.61L66.44 37.61C69.49 37.7 71.84 40.11 71.84 43.07L71.84 49.42C71.84 52.38 69.49 54.79 66.53 54.88L60.43 54.88ZM66.38 42.24L60.06 42.24C58.98 42.24 57.99 42.64 57.28 43.38C56.39 44.24 55.96 45.41 56.08 46.58C56.27 48.62 58.21 50.25 60.43 50.25L66.47 50.25C66.87 50.25 67.24 49.88 67.24 49.42L67.24 43.07C67.24 42.61 66.87 42.27 66.38 42.24Z" fill="#FF9900" fill-opacity="1.000000" fill-rule="nonzero"/>
		<path id="Vector" d="M43.16 39.31L21.58 39.31C20.31 39.31 19.27 38.26 19.27 37C19.27 35.73 20.31 34.68 21.58 34.68L43.16 34.68C44.43 34.68 45.47 35.73 45.47 37C45.47 38.26 44.43 39.31 43.16 39.31Z" fill="#FF9900" fill-opacity="1.000000" fill-rule="nonzero"/>
	</g>
</svg>
