<svg width="36.000000" height="36.000000" viewBox="0 0 36 36" fill="none" xmlns="http://www.w3.org/2000/svg" xmlns:xlink="http://www.w3.org/1999/xlink">
	<desc>
			Created with Pixso.
	</desc>
	<defs/>
	<path id="Vector" d="M36 18C36 27.94 27.94 36 18 36C8.05 36 0 27.94 0 18C0 8.05 8.05 0 18 0C27.94 0 36 8.05 36 18Z" fill="#3B5998" fill-opacity="1.000000" fill-rule="evenodd"/>
	<path id="Vector" d="M22.52 18.7L19.31 18.7L19.31 30.47L14.44 30.47L14.44 18.7L12.13 18.7L12.13 14.56L14.44 14.56L14.44 11.89C14.44 9.97 15.35 6.98 19.35 6.98L22.96 6.99L22.96 11.01L20.34 11.01C19.91 11.01 19.31 11.22 19.31 12.13L19.31 14.57L22.95 14.57L22.52 18.7Z" fill="#FFFFFF" fill-opacity="1.000000" fill-rule="nonzero"/>
</svg>
