<svg width="35.999664" height="35.999634" viewBox="0 0 35.9997 35.9996" fill="none" xmlns="http://www.w3.org/2000/svg" xmlns:xlink="http://www.w3.org/1999/xlink">
	<desc>
			Created with Pixso.
	</desc>
	<defs/>
	<path id="Vector" d="M35.99 17.99C35.99 27.94 27.94 35.99 17.99 35.99C8.05 35.99 0 27.94 0 17.99C0 8.05 8.05 0 17.99 0C27.94 0 35.99 8.05 35.99 17.99Z" fill="#55ACEE" fill-opacity="1.000000" fill-rule="evenodd"/>
	<path id="Vector" d="M29.02 12.93C28.25 13.27 27.42 13.5 26.55 13.61C27.44 13.08 28.12 12.23 28.44 11.23C27.61 11.72 26.69 12.08 25.71 12.27C24.92 11.44 23.81 10.91 22.57 10.91C20.19 10.91 18.27 12.84 18.27 15.22C18.27 15.55 18.3 15.88 18.38 16.2C14.8 16.02 11.63 14.3 9.51 11.7C9.14 12.34 8.93 13.08 8.93 13.86C8.93 15.36 9.69 16.67 10.84 17.45C10.14 17.42 9.47 17.23 8.89 16.91C8.89 16.92 8.89 16.94 8.89 16.96C8.89 19.05 10.37 20.78 12.34 21.18C11.98 21.28 11.6 21.33 11.21 21.33C10.93 21.33 10.66 21.3 10.4 21.25C10.95 22.96 12.54 24.21 14.42 24.24C12.95 25.4 11.09 26.08 9.08 26.08C8.73 26.08 8.39 26.06 8.05 26.02C9.95 27.24 12.21 27.96 14.64 27.96C22.56 27.96 26.89 21.4 26.89 15.71C26.89 15.53 26.88 15.34 26.87 15.16C27.71 14.55 28.44 13.79 29.02 12.93Z" fill="#F1F2F2" fill-opacity="1.000000" fill-rule="nonzero"/>
</svg>
