<svg width="36.000000" height="36.000000" viewBox="0 0 36 36" fill="none" xmlns="http://www.w3.org/2000/svg" xmlns:xlink="http://www.w3.org/1999/xlink">
	<desc>
			Created with Pixso.
	</desc>
	<defs>
		<clipPath id="clip2_636">
			<rect id="linkedin" rx="-0.198110" width="35.603779" height="35.603779" transform="translate(0.198110 0.198110)" fill="white" fill-opacity="0"/>
		</clipPath>
	</defs>
	<rect id="linkedin" rx="-0.198110" width="35.603779" height="35.603779" transform="translate(0.198110 0.198110)" fill="#FFFFFF" fill-opacity="0"/>
	<g clip-path="url(#clip2_636)">
		<path id="Vector" d="M36 17.99C36 27.94 27.94 35.99 18 35.99C8.05 35.99 0 27.94 0 17.99C0 8.05 8.05 -0.01 18 -0.01C27.94 -0.01 36 8.05 36 17.99Z" fill="#007AB9" fill-opacity="1.000000" fill-rule="evenodd"/>
		<path id="Vector" d="M28.75 19.44L28.75 26.86L24.45 26.86L24.45 19.94C24.45 18.2 23.83 17.01 22.27 17.01C21.08 17.01 20.37 17.81 20.06 18.59C19.95 18.86 19.92 19.25 19.92 19.64L19.92 26.86L15.62 26.86C15.62 26.86 15.67 15.14 15.62 13.92L19.92 13.92L19.92 15.76C19.91 15.77 19.9 15.79 19.89 15.8L19.92 15.8L19.92 15.76C20.49 14.88 21.51 13.62 23.8 13.62C26.63 13.62 28.75 15.47 28.75 19.44ZM11.12 7.69C9.64 7.69 8.68 8.65 8.68 9.92C8.68 11.16 9.62 12.16 11.06 12.16L11.09 12.16C12.59 12.16 13.52 11.16 13.52 9.92C13.49 8.65 12.59 7.69 11.12 7.69ZM8.94 26.86L13.24 26.86L13.24 13.92L8.94 13.92L8.94 26.86Z" fill="#F1F2F2" fill-opacity="1.000000" fill-rule="nonzero"/>
	</g>
</svg>
